<svg width="120" height="17" viewBox="0 0 120 17" fill="none" xmlns="http://www.w3.org/2000/svg">
<g clip-path="url(#clip0_111_33655)">
<path d="M7.75888 2.75098L9.47811 6.49997L13.436 7.04284L10.5407 9.90272L11.2675 13.9872L7.75888 12.0057L4.25024 13.9872L4.9771 9.90272L2.08179 7.04284L6.03965 6.49997L7.75888 2.75098Z" fill="url(#paint0_linear_111_33655)"/>
<path d="M15.1665 6.85592C15.4419 6.57398 15.2829 6.09871 14.8933 6.03927L10.2604 5.33245L8.19681 0.94076C8.02254 0.569876 7.495 0.569877 7.32072 0.94076L5.25713 5.33245L0.62416 6.03928C0.234574 6.09872 0.0755471 6.57396 0.350901 6.8559L3.71793 10.3035L2.92555 15.1584C2.86049 15.557 3.28359 15.8553 3.6372 15.66L7.75877 13.3839L11.8803 15.6599C12.2339 15.8552 12.657 15.5569 12.5919 15.1583L11.7991 10.3034L15.1665 6.85592ZM7.75877 12.2142L4.01336 14.314L4.72825 10.0771L1.50366 6.78543L5.86513 6.21824L7.75877 2.18246L9.63527 6.21826L13.9821 6.83485L10.7893 10.0927L11.4568 14.3297L7.75877 12.2142Z" fill="black"/>
</g>
<g clip-path="url(#clip1_111_33655)">
<path d="M33.7589 2.75098L35.4781 6.49997L39.436 7.04284L36.5407 9.90272L37.2675 13.9872L33.7589 12.0057L30.2502 13.9872L30.9771 9.90272L28.0818 7.04284L32.0396 6.49997L33.7589 2.75098Z" fill="url(#paint1_linear_111_33655)"/>
<path d="M41.1665 6.85592C41.4419 6.57398 41.2829 6.09871 40.8933 6.03927L36.2604 5.33245L34.1968 0.94076C34.0225 0.569876 33.495 0.569877 33.3207 0.94076L31.2571 5.33245L26.6242 6.03928C26.2346 6.09872 26.0755 6.57396 26.3509 6.8559L29.7179 10.3035L28.9256 15.1584C28.8605 15.557 29.2836 15.8553 29.6372 15.66L33.7588 13.3839L37.8803 15.6599C38.2339 15.8552 38.657 15.5569 38.5919 15.1583L37.7991 10.3034L41.1665 6.85592ZM33.7588 12.2142L30.0134 14.314L30.7282 10.0771L27.5037 6.78543L31.8651 6.21824L33.7588 2.18246L35.6353 6.21826L39.9821 6.83485L36.7893 10.0927L37.4568 14.3297L33.7588 12.2142Z" fill="black"/>
</g>
<g clip-path="url(#clip2_111_33655)">
<path d="M59.7588 2.75098L61.478 6.49997L65.4358 7.04284L62.5405 9.90272L63.2674 13.9872L59.7588 12.0057L56.2501 13.9872L56.977 9.90272L54.0817 7.04284L58.0395 6.49997L59.7588 2.75098Z" fill="url(#paint2_linear_111_33655)"/>
<path d="M67.1664 6.85592C67.4418 6.57398 67.2828 6.09871 66.8932 6.03927L62.2603 5.33245L60.1967 0.94076C60.0224 0.569876 59.4949 0.569877 59.3206 0.94076L57.257 5.33245L52.624 6.03928C52.2345 6.09872 52.0754 6.57396 52.3508 6.8559L55.7178 10.3035L54.9254 15.1584C54.8604 15.557 55.2835 15.8553 55.6371 15.66L59.7586 13.3839L63.8801 15.6599C64.2338 15.8552 64.6569 15.5569 64.5918 15.1583L63.799 10.3034L67.1664 6.85592ZM59.7586 12.2142L56.0132 14.314L56.7281 10.0771L53.5035 6.78543L57.865 6.21824L59.7586 2.18246L61.6351 6.21826L65.982 6.83485L62.7891 10.0927L63.4567 14.3297L59.7586 12.2142Z" fill="black"/>
</g>
<g clip-path="url(#clip3_111_33655)">
<path d="M85.7588 2.75098L87.478 6.49997L91.4358 7.04284L88.5405 9.90272L89.2674 13.9872L85.7588 12.0057L82.2501 13.9872L82.977 9.90272L80.0817 7.04284L84.0395 6.49997L85.7588 2.75098Z" fill="url(#paint3_linear_111_33655)"/>
<path d="M93.1664 6.85592C93.4418 6.57398 93.2828 6.09871 92.8932 6.03927L88.2603 5.33245L86.1967 0.94076C86.0224 0.569876 85.4949 0.569877 85.3206 0.94076L83.257 5.33245L78.624 6.03928C78.2345 6.09872 78.0754 6.57396 78.3508 6.8559L81.7178 10.3035L80.9254 15.1584C80.8604 15.557 81.2835 15.8553 81.6371 15.66L85.7586 13.3839L89.8801 15.6599C90.2338 15.8552 90.6569 15.5569 90.5918 15.1583L89.799 10.3034L93.1664 6.85592ZM85.7586 12.2142L82.0132 14.314L82.7281 10.0771L79.5035 6.78543L83.865 6.21824L85.7586 2.18246L87.6351 6.21826L91.982 6.83485L88.7891 10.0927L89.4567 14.3297L85.7586 12.2142Z" fill="black"/>
</g>
<g clip-path="url(#clip4_111_33655)">
<path d="M119.166 6.85592C119.442 6.57398 119.283 6.09871 118.893 6.03927L114.26 5.33245L112.197 0.94076C112.022 0.569876 111.495 0.569877 111.321 0.94076L109.257 5.33245L104.624 6.03928C104.234 6.09872 104.075 6.57396 104.351 6.8559L107.718 10.3035L106.925 15.1584C106.86 15.557 107.283 15.8553 107.637 15.66L111.759 13.3839L115.88 15.6599C116.234 15.8552 116.657 15.5569 116.592 15.1583L115.799 10.3034L119.166 6.85592ZM111.759 12.2142L108.013 14.314L108.728 10.0771L105.504 6.78543L109.865 6.21824L111.759 2.18246L113.635 6.21826L117.982 6.83485L114.789 10.0927L115.457 14.3297L111.759 12.2142Z" fill="black"/>
</g>
<defs>
<linearGradient id="paint0_linear_111_33655" x1="-4.23398" y1="-5.05198" x2="15.5849" y2="-2.6725" gradientUnits="userSpaceOnUse">
<stop stop-color="#F64D4D"/>
<stop offset="1" stop-color="#4D5EF6"/>
</linearGradient>
<linearGradient id="paint1_linear_111_33655" x1="21.766" y1="-5.05198" x2="41.5849" y2="-2.6725" gradientUnits="userSpaceOnUse">
<stop stop-color="#F64D4D"/>
<stop offset="1" stop-color="#4D5EF6"/>
</linearGradient>
<linearGradient id="paint2_linear_111_33655" x1="47.7659" y1="-5.05198" x2="67.5848" y2="-2.6725" gradientUnits="userSpaceOnUse">
<stop stop-color="#F64D4D"/>
<stop offset="1" stop-color="#4D5EF6"/>
</linearGradient>
<linearGradient id="paint3_linear_111_33655" x1="73.7659" y1="-5.05198" x2="93.5848" y2="-2.6725" gradientUnits="userSpaceOnUse">
<stop stop-color="#F64D4D"/>
<stop offset="1" stop-color="#4D5EF6"/>
</linearGradient>
<clipPath id="clip0_111_33655">
<rect width="16" height="16" fill="white" transform="translate(0 0.611328)"/>
</clipPath>
<clipPath id="clip1_111_33655">
<rect width="16" height="16" fill="white" transform="translate(26 0.611328)"/>
</clipPath>
<clipPath id="clip2_111_33655">
<rect width="16" height="16" fill="white" transform="translate(52 0.611328)"/>
</clipPath>
<clipPath id="clip3_111_33655">
<rect width="16" height="16" fill="white" transform="translate(78 0.611328)"/>
</clipPath>
<clipPath id="clip4_111_33655">
<rect width="16" height="16" fill="white" transform="translate(104 0.611328)"/>
</clipPath>
</defs>
</svg>
